<svg xmlns="http://www.w3.org/2000/svg" width="50" height="50" viewBox="0 0 50 50"><g id="BACKGROUND"><path d="M30,6C16.71,6,6,21.94,6,35.14,6,47,15,54,30,54s24-7,24-18.86C54,21.94,43.29,6,30,6Z" transform="translate(-5 -5)" style="fill:#fff"/><path d="M30,5C16.15,5,5,21.41,5,35c0,12.52,9.35,20,25,20s25-7.48,25-20C55,21.41,43.85,5,30,5Zm0,48.33C15.39,53.33,6.67,46.48,6.67,35,6.67,22.17,17.08,6.67,30,6.67S53.33,22.17,53.33,35C53.33,46.48,44.61,53.33,30,53.33Z" transform="translate(-5 -5)"/></g><g id="high"><path d="M39.17,20a5.84,5.84,0,0,0-5.84,5.83,4.17,4.17,0,0,0,8.34,0,2.5,2.5,0,0,0-5,0,.83.83,0,1,0,1.66,0,.84.84,0,0,1,.84-.83.83.83,0,0,1,.83.83,2.5,2.5,0,1,1-5,0,4.17,4.17,0,0,1,8.33,0,.85.85,0,0,0,.84.84.84.84,0,0,0,.83-.84A5.84,5.84,0,0,0,39.17,20Z" transform="translate(-5 -5)" style="fill:#427cac"/><path d="M20.83,21.67A4.17,4.17,0,0,1,25,25.83a.84.84,0,0,0,.83.84.85.85,0,0,0,.84-.84,5.84,5.84,0,0,0-11.67,0,4.17,4.17,0,1,0,8.33,0,2.5,2.5,0,0,0-5,0,.85.85,0,0,0,.84.84.84.84,0,0,0,.83-.84.83.83,0,0,1,.83-.83.84.84,0,0,1,.84.83,2.5,2.5,0,1,1-5,0,4.17,4.17,0,0,1,4.16-4.16Z" transform="translate(-5 -5)" style="fill:#427cac"/><path d="M34.17,31.67H25.83a.83.83,0,0,0,0,1.66h8.34a.83.83,0,0,0,0-1.66Z" transform="translate(-5 -5)" style="fill:#427cac"/></g></svg>