<svg xmlns="http://www.w3.org/2000/svg" width="50" height="50" viewBox="0 0 50 50"><g id="BACKGROUND"><path d="M30,6C16.71,6,6,21.94,6,35.14,6,47,15,54,30,54s24-7,24-18.86C54,21.94,43.29,6,30,6Z" transform="translate(-5 -5)" style="fill:#fff"/><path d="M30,5C16.15,5,5,21.41,5,35c0,12.52,9.35,20,25,20s25-7.48,25-20C55,21.41,43.85,5,30,5Zm0,48.33C15.39,53.33,6.67,46.48,6.67,35,6.67,22.17,17.08,6.67,30,6.67S53.33,22.17,53.33,35C53.33,46.48,44.61,53.33,30,53.33Z" transform="translate(-5 -5)"/></g><g id="joy"><path d="M20,23.33a.82.82,0,0,0,.83-.83.84.84,0,0,1,.84-.83.83.83,0,0,1,.83.83.83.83,0,0,0,.83.83.84.84,0,0,0,.84-.83,2.5,2.5,0,1,0-5,0,.82.82,0,0,0,.83.83Z" transform="translate(-5 -5)" style="fill:#427cac"/><path d="M36.67,23.33a.82.82,0,0,0,.59-.24.87.87,0,0,0,.24-.59.83.83,0,0,1,.83-.83.84.84,0,0,1,.84.83.83.83,0,0,0,1.66,0,2.5,2.5,0,0,0-1.25-2.17,2.5,2.5,0,0,0-3.75,2.17.83.83,0,0,0,.25.59A.81.81,0,0,0,36.67,23.33Z" transform="translate(-5 -5)" style="fill:#427cac"/><path d="M41.67,25a.84.84,0,0,0-.84.83C40.83,30.89,36,35,30,35s-10.83-4.11-10.83-9.17a.84.84,0,0,0-.84-.83.83.83,0,0,0-.83.83c0,6,5.61,10.84,12.5,10.84s12.5-4.86,12.5-10.84a.82.82,0,0,0-.83-.83Z" transform="translate(-5 -5)" style="fill:#427cac"/></g></svg>