<svg xmlns="http://www.w3.org/2000/svg" width="50" height="50" viewBox="0 0 50 50"><g id="BACKGROUND"><path d="M30,6C16.71,6,6,21.94,6,35.14,6,47,15,54,30,54s24-7,24-18.86C54,21.94,43.29,6,30,6Z" transform="translate(-5 -5)" style="fill:#fff"/></g><g id="kiss"><path d="M41.2,21.11a1.26,1.26,0,0,0-.37.89v.43a.83.83,0,1,1-1.66,0V22a1.25,1.25,0,0,0-2.5,0c.08.82,2.6,3.69,3.36,3.83h0c.7-.13,3.22-3,3.3-3.84a1.25,1.25,0,0,0-1.25-1.25A1.3,1.3,0,0,0,41.2,21.11Z" transform="translate(-5 -5)" style="fill:#fff"/><path d="M22.08,20.74a1.3,1.3,0,0,0-.88.37,1.26,1.26,0,0,0-.37.89v.43a.83.83,0,1,1-1.66,0V22a1.25,1.25,0,0,0-2.5,0c.08.82,2.6,3.69,3.36,3.83h0c.7-.13,3.22-3,3.3-3.84A1.25,1.25,0,0,0,22.08,20.74Z" transform="translate(-5 -5)" style="fill:#fff"/><path d="M30,5C16.15,5,5,21.41,5,35c0,12.52,9.35,20,25,20s25-7.48,25-20C55,21.41,43.85,5,30,5Zm0,48.33C15.39,53.33,6.67,46.48,6.67,35,6.67,22.17,17.08,6.67,30,6.67S53.33,22.17,53.33,35C53.33,46.48,44.61,53.33,30,53.33Z" transform="translate(-5 -5)"/><path d="M22.08,19.17A2.91,2.91,0,0,0,20,20a2.92,2.92,0,0,0-5,2c0,1.55,3.33,5.5,5,5.5s5-3.95,5-5.5a2.87,2.87,0,0,0-2.92-2.83Zm-2,6.66h0c-.76-.14-3.28-3-3.36-3.83a1.25,1.25,0,0,1,2.5,0v.43a.83.83,0,1,0,1.66,0V22a1.26,1.26,0,0,1,.37-.89,1.3,1.3,0,0,1,.88-.37A1.25,1.25,0,0,1,23.33,22C23.25,22.82,20.73,25.7,20,25.83Z" transform="translate(-5 -5)" style="fill:#427cac"/><path d="M40,20a2.92,2.92,0,0,0-5,2c0,1.55,3.33,5.5,5,5.5s5-3.95,5-5.5a2.94,2.94,0,0,0-5-2Zm3.33,2c-.08.83-2.6,3.71-3.3,3.84h0c-.76-.14-3.28-3-3.36-3.83a1.25,1.25,0,0,1,2.5,0v.43a.83.83,0,1,0,1.66,0V22a1.26,1.26,0,0,1,.37-.89,1.3,1.3,0,0,1,.88-.37A1.25,1.25,0,0,1,43.33,22Z" transform="translate(-5 -5)" style="fill:#427cac"/><polygon points="25.23 20.02 25.23 20.02 25.23 20.02 25.23 20.02" style="fill:#fff"/><path d="M30,23.33h-.25L27,25.14a.81.81,0,0,0-.35.53.83.83,0,0,0,.12.63.84.84,0,0,0,1.16.23L30.23,25h0a1.65,1.65,0,0,1,1.29.95,1.69,1.69,0,0,1-.12,1.6,1.66,1.66,0,0,1-1.4.76.84.84,0,0,0-.83.84A.83.83,0,0,0,30,30a1.67,1.67,0,0,1,1.51,2.36,1.67,1.67,0,0,1-1.28,1L28,31.81a.81.81,0,0,0-.62-.13.83.83,0,0,0-.53.36A.82.82,0,0,0,27,33.19L29.75,35H30a3.32,3.32,0,0,0,3.33-3.48,3.29,3.29,0,0,0-1.15-2.35,3.3,3.3,0,0,0,1.15-2.5h0A3.33,3.33,0,0,0,30,23.33Z" transform="translate(-5 -5)" style="fill:#427cac"/></g></svg>