<svg xmlns="http://www.w3.org/2000/svg" width="50" height="50" viewBox="0 0 50 50"><g id="BACKGROUND"><path d="M30,6C16.71,6,6,21.94,6,35.14,6,47,15,54,30,54s24-7,24-18.86C54,21.94,43.29,6,30,6Z" transform="translate(-5 -5)" style="fill:#fff"/><path d="M30,5C16.15,5,5,21.41,5,35c0,12.52,9.35,20,25,20s25-7.48,25-20C55,21.41,43.85,5,30,5Zm0,48.33C15.39,53.33,6.67,46.48,6.67,35,6.67,22.17,17.08,6.67,30,6.67S53.33,22.17,53.33,35C53.33,46.48,44.61,53.33,30,53.33Z" transform="translate(-5 -5)"/></g><g id="meuh"><path d="M37.09,33.45C36.55,33.13,35,32,35,30.83s1.55-2.29,2.1-2.62a.83.83,0,0,0,.26-1.12.84.84,0,0,0-1.12-.31c-.28.17-2.55,1.59-2.87,3.6a5.09,5.09,0,0,1-6.74,0c-.32-2-2.59-3.43-2.87-3.6a.84.84,0,0,0-1.16.28.8.8,0,0,0-.09.64.82.82,0,0,0,.4.51c.54.33,2.09,1.51,2.09,2.62s-1.55,2.29-2.09,2.62a.81.81,0,0,0-.4.51.82.82,0,0,0,.09.65.81.81,0,0,0,.52.38.85.85,0,0,0,.64-.11,7.18,7.18,0,0,0,2.58-2.67,6.59,6.59,0,0,0,7.32,0,7.18,7.18,0,0,0,2.58,2.67.85.85,0,0,0,.64.11.81.81,0,0,0,.52-.38.83.83,0,0,0,.09-.65.85.85,0,0,0-.4-.51Z" transform="translate(-5 -5)" style="fill:#427cac"/><path d="M20,20a2.49,2.49,0,1,0,1.77.73A2.51,2.51,0,0,0,20,20Zm0,3.33a.82.82,0,1,1,.59-.24A.83.83,0,0,1,20,23.33Z" transform="translate(-5 -5)" style="fill:#427cac"/><path d="M40,20a2.49,2.49,0,1,0,1.77.73A2.51,2.51,0,0,0,40,20Zm0,3.33a.82.82,0,1,1,.59-.24A.83.83,0,0,1,40,23.33Z" transform="translate(-5 -5)" style="fill:#427cac"/></g></svg>