<svg xmlns="http://www.w3.org/2000/svg" width="50" height="50" viewBox="0 0 50 50"><g id="BACKGROUND"><path d="M30,6C16.71,6,6,21.94,6,35.14,6,47,15,54,30,54s24-7,24-18.86C54,21.94,43.29,6,30,6Z" transform="translate(-5 -5)" style="fill:#fff"/><path d="M30,5C16.15,5,5,21.41,5,35c0,12.52,9.35,20,25,20s25-7.48,25-20C55,21.41,43.85,5,30,5Zm0,48.33C15.39,53.33,6.67,46.48,6.67,35,6.67,22.17,17.08,6.67,30,6.67S53.33,22.17,53.33,35C53.33,46.48,44.61,53.33,30,53.33Z" transform="translate(-5 -5)"/></g><g id="smart"><path d="M34.17,28.33a.85.85,0,0,0-.84.84v1.66a.81.81,0,0,1-.24.59.83.83,0,0,1-.59.25H25.83a.83.83,0,0,0,0,1.66H32.5a2.49,2.49,0,0,0,2.5-2.5V29.17a.85.85,0,0,0-.24-.59.83.83,0,0,0-.59-.25Z" transform="translate(-5 -5)" style="fill:#427cac"/><path d="M20.83,23.33a2.51,2.51,0,1,0,1.77.74,2.47,2.47,0,0,0-1.77-.74Zm0,3.34a.84.84,0,1,1,.84-.84.85.85,0,0,1-.84.84Z" transform="translate(-5 -5)" style="fill:#427cac"/><path d="M39.17,23.33a2.5,2.5,0,0,0-1.77.74,2.5,2.5,0,0,0,3.53,3.53,2.51,2.51,0,0,0-1.76-4.27Zm0,3.34a.84.84,0,1,1,.83-.84.85.85,0,0,1-.24.59A.83.83,0,0,1,39.17,26.67Z" transform="translate(-5 -5)" style="fill:#427cac"/><path d="M22.5,20H19.17a.85.85,0,0,0-.59.24l-1.67,1.67a.83.83,0,0,0-.25.59.82.82,0,0,0,.84.84.83.83,0,0,0,.59-.25l1.42-1.42h3a.84.84,0,0,0,.83-.84A.83.83,0,0,0,22.5,20Z" transform="translate(-5 -5)" style="fill:#427cac"/><path d="M41.42,20.24a.85.85,0,0,0-.59-.24H37.5a.83.83,0,0,0-.83.83.84.84,0,0,0,.83.84h3l1.42,1.42h0a.84.84,0,0,0,1.17,0,.83.83,0,0,0,0-1.17Z" transform="translate(-5 -5)" style="fill:#427cac"/></g></svg>