<svg xmlns="http://www.w3.org/2000/svg" width="50" height="50" viewBox="0 0 50 50"><g id="BACKGROUND"><path d="M30,6C16.71,6,6,21.94,6,35.14,6,47,15,54,30,54s24-7,24-18.86C54,21.94,43.29,6,30,6Z" transform="translate(-5 -5)" style="fill:#fff"/><path d="M30,5C16.15,5,5,21.41,5,35c0,12.52,9.35,20,25,20s25-7.48,25-20C55,21.41,43.85,5,30,5Zm0,48.33C15.39,53.33,6.67,46.48,6.67,35,6.67,22.17,17.08,6.67,30,6.67S53.33,22.17,53.33,35C53.33,46.48,44.61,53.33,30,53.33Z" transform="translate(-5 -5)"/></g><g id="talk"><path d="M37.5,26.67h-15a.83.83,0,0,0-.83.83A8.32,8.32,0,0,0,23,32l0,0,.48.61,0,0h0A8.76,8.76,0,0,0,24.75,34l.29.21.4.29.37.22.38.21.39.19.41.17.4.14.46.14c.13,0,.25.07.38.09l.56.1.31.05h0c.3,0,.6,0,.9,0s.51,0,.76,0l.29,0,.44-.07.35-.07.36-.09.37-.11h0l.73-.24v0a8.32,8.32,0,0,0,5-7.63.82.82,0,0,0-.83-.83Zm-7,7.47h-1c-.22,0-.44,0-.65-.08h-.06a6.82,6.82,0,0,1-1.46-.44l-.1,0-.61-.31-.07,0c-.21-.13-.42-.27-.62-.42l-.09-.07c-.17-.13-.32-.27-.47-.41l-.07-.06h0a4.15,4.15,0,0,1,5.91,1.78c-.25,0-.49.07-.74.09Zm2.33-.62A5.82,5.82,0,0,0,24.31,31a6.52,6.52,0,0,1-.92-2.63H36.61a6.66,6.66,0,0,1-3.76,5.19Z" transform="translate(-5 -5)" style="fill:#427cac"/><path d="M23.33,22.5a2.49,2.49,0,0,0-2.5-2.5,2.47,2.47,0,0,0-1.76.73,2.49,2.49,0,0,0,0,3.54,2.5,2.5,0,0,0,3.53,0A2.51,2.51,0,0,0,23.33,22.5Zm-2.5.83a.84.84,0,0,1-.77-.51.85.85,0,0,1,.18-.91.83.83,0,1,1,1.18,1.18A.81.81,0,0,1,20.83,23.33Z" transform="translate(-5 -5)" style="fill:#427cac"/><path d="M39.17,20a2.5,2.5,0,1,0,1.76,4.27,2.49,2.49,0,0,0,0-3.54A2.47,2.47,0,0,0,39.17,20Zm0,3.33A.83.83,0,1,1,40,22.5a.87.87,0,0,1-.24.59A.82.82,0,0,1,39.17,23.33Z" transform="translate(-5 -5)" style="fill:#427cac"/></g></svg>