<svg xmlns="http://www.w3.org/2000/svg" width="50" height="50" viewBox="0 0 50 50"><g id="BACKGROUND"><path d="M30,6C16.71,6,6,21.94,6,35.14,6,47,15,54,30,54s24-7,24-18.86C54,21.94,43.29,6,30,6Z" transform="translate(-5 -5)" style="fill:#fff"/><path d="M30,5C16.15,5,5,21.41,5,35c0,12.52,9.35,20,25,20s25-7.48,25-20C55,21.41,43.85,5,30,5Zm0,48.33C15.39,53.33,6.67,46.48,6.67,35,6.67,22.17,17.08,6.67,30,6.67S53.33,22.17,53.33,35C53.33,46.48,44.61,53.33,30,53.33Z" transform="translate(-5 -5)"/></g><g id="tang"><path d="M23.33,26.67h2.5V32.5a4.17,4.17,0,0,0,8.34,0V26.67h2.5a.84.84,0,0,0,.83-.84.83.83,0,0,0-.83-.83H23.33a.83.83,0,0,0-.83.83A.84.84,0,0,0,23.33,26.67Zm5.84,0v2.5a.83.83,0,0,0,1.66,0v-2.5H32.5V32.5a2.5,2.5,0,1,1-5,0V26.67Z" transform="translate(-5 -5)" style="fill:#427cac"/><path d="M17.67,26.33a.82.82,0,0,0,1.16.17L22.17,24a.83.83,0,0,0,.33-.67.81.81,0,0,0-.33-.66l-3.34-2.5a.83.83,0,0,0-1.16.16.84.84,0,0,0,.16,1.17l2.45,1.83-2.45,1.84a.84.84,0,0,0-.32.55A.79.79,0,0,0,17.67,26.33Z" transform="translate(-5 -5)" style="fill:#427cac"/><path d="M41.17,26.5a.83.83,0,0,0,1-1.33l-2.45-1.84,2.45-1.83a.84.84,0,0,0,.16-1.17.83.83,0,0,0-1.16-.16l-3.34,2.5a.81.81,0,0,0-.33.66.83.83,0,0,0,.33.67Z" transform="translate(-5 -5)" style="fill:#427cac"/></g></svg>